<?xml version="1.0" ?><svg data-name="Layer 1" id="Layer_1" viewBox="0 0 512 512" xmlns="http://www.w3.org/2000/svg"><title/><path d="M129.46,254.87H89.18a5.77,5.77,0,0,0-5.77,5.77v27a5.77,5.77,0,0,0,5.77,5.77h40.28a5.77,5.77,0,0,0,5.77-5.77v-27A5.77,5.77,0,0,0,129.46,254.87Zm-5.76,27H94.94V266.4H123.7Z"/><path d="M382.54,293.4h40.3a5.76,5.76,0,0,0,5.76-5.77v-27a5.76,5.76,0,0,0-5.76-5.77h-40.3a5.77,5.77,0,0,0-5.77,5.77v27A5.77,5.77,0,0,0,382.54,293.4Zm5.76-27h28.77v15.47H388.3Z"/><path d="M129.46,307.16H89.18a5.77,5.77,0,0,0-5.77,5.77v27a5.77,5.77,0,0,0,5.77,5.77h40.28a5.77,5.77,0,0,0,5.77-5.77v-27A5.77,5.77,0,0,0,129.46,307.16Zm-5.76,27H94.94V318.69H123.7Z"/><path d="M198.4,293.4h40.28a5.77,5.77,0,0,0,5.77-5.77v-27a5.77,5.77,0,0,0-5.77-5.77H198.4a5.77,5.77,0,0,0-5.77,5.77v27A5.77,5.77,0,0,0,198.4,293.4Zm5.76-27h28.75v15.47H204.16Z"/><path d="M198.4,345.68h40.28a5.77,5.77,0,0,0,5.77-5.77v-27a5.77,5.77,0,0,0-5.77-5.77H198.4a5.77,5.77,0,0,0-5.77,5.77v27A5.77,5.77,0,0,0,198.4,345.68Zm5.76-27h28.75v15.46H204.16Z"/><path d="M264.6,260.64v27a5.76,5.76,0,0,0,5.76,5.77h40.29a5.76,5.76,0,0,0,5.76-5.77v-27a5.76,5.76,0,0,0-5.76-5.77H270.36A5.76,5.76,0,0,0,264.6,260.64Zm11.53,5.76h28.75v15.47H276.13Z"/><path d="M310.65,307.16H270.36a5.76,5.76,0,0,0-5.76,5.77v27a5.76,5.76,0,0,0,5.76,5.77h40.29a5.76,5.76,0,0,0,5.76-5.77v-27A5.76,5.76,0,0,0,310.65,307.16Zm-5.77,27H276.13V318.69h28.75Z"/><path d="M198.4,398h40.28a5.77,5.77,0,0,0,5.77-5.76v-27a5.77,5.77,0,0,0-5.77-5.77H198.4a5.77,5.77,0,0,0-5.77,5.77v27A5.76,5.76,0,0,0,198.4,398Zm5.76-27h28.75v15.46H204.16Z"/><path d="M310.65,359.44H270.36a5.76,5.76,0,0,0-5.76,5.77v27a5.76,5.76,0,0,0,5.76,5.76h40.29a5.76,5.76,0,0,0,5.76-5.76v-27A5.76,5.76,0,0,0,310.65,359.44Zm-5.77,27H276.13V371h28.75Z"/><path d="M382.54,345.68h40.3a5.76,5.76,0,0,0,5.76-5.77v-27a5.76,5.76,0,0,0-5.76-5.77h-40.3a5.77,5.77,0,0,0-5.77,5.77v27A5.77,5.77,0,0,0,382.54,345.68Zm5.76-27h28.77v15.46H388.3Z"/><path d="M129.46,359.44H89.18a5.77,5.77,0,0,0-5.77,5.77v27A5.76,5.76,0,0,0,89.18,398h40.28a5.76,5.76,0,0,0,5.77-5.76v-27A5.77,5.77,0,0,0,129.46,359.44Zm-5.76,27H94.94V371H123.7Z"/><path d="M382.54,398h40.3a5.76,5.76,0,0,0,5.76-5.76v-27a5.76,5.76,0,0,0-5.76-5.77h-40.3a5.77,5.77,0,0,0-5.77,5.77v27A5.76,5.76,0,0,0,382.54,398Zm5.76-27h28.77v15.46H388.3Z"/><path d="M254.52,232.56a42.08,42.08,0,1,0-42.07-42.08A42.12,42.12,0,0,0,254.52,232.56Zm-5.76-72v30a5.77,5.77,0,0,0,11.53,0v-30a30.55,30.55,0,1,1-11.53,0Z"/><path d="M487.7,466.83H463.11V241.11h8a5.77,5.77,0,0,0,5.77-5.77V187.16a5.77,5.77,0,0,0-5.77-5.76H351.82V163.81a5.76,5.76,0,0,0-2.92-5L273.52,116a80,80,0,0,0,17.32-4.42c10.21-3.55,19-6.6,31.11-1.28a5.78,5.78,0,0,0,8.1-5.28V42.76a5.78,5.78,0,0,0-3.44-5.28c-16.2-7.11-28.59-2.86-39.54.92C276.86,41.91,268,45,256,39.67a5.78,5.78,0,0,0-8.1,5.28v62.27a5.72,5.72,0,0,0,.88,3L163.1,158.8a5.76,5.76,0,0,0-2.92,5V181.4H40.9a5.76,5.76,0,0,0-5.76,5.76v48.18a5.76,5.76,0,0,0,5.76,5.77h8V466.83H24.3a5.77,5.77,0,1,0,0,11.53H487.7a5.77,5.77,0,1,0,0-11.53Zm-204.5,0H225.84v-26a28.68,28.68,0,0,1,57.36,0Zm168.38,0H351.82V241.11h99.76Zm13.76-273.9v36.65H351.82V192.93ZM259.42,53c12.38,2.9,22.38-.55,31.42-3.67,9.21-3.18,17.27-6,27.67-2.59V97c-12.34-2.89-22.38.55-31.44,3.68-9.22,3.16-17.35,6-27.65,2.59Zm-87.71,114.2L256,119.32l84.28,47.85V466.83H294.73v-26a40.21,40.21,0,0,0-80.42,0v26h-42.6V167.17Zm-125,25.76H160.18v36.65H46.67Zm13.77,48.18h99.74V466.83H60.44Z"/></svg>